<svg width="40" height="21" viewBox="0 0 40 21" fill="none" xmlns="http://www.w3.org/2000/svg">
<path d="M34.7685 15.0232L33.4105 16.1982C31.8095 14.131 30.7259 12.4555 30.053 10.8452C29.6261 9.82249 29.518 9.12616 29.6514 8.47337C29.7894 7.79882 30.2445 7.36363 30.8998 7.36363C31.4586 7.36363 31.9034 7.73355 32.271 8.38635C33.4466 7.82059 34.0916 6.92843 34.3319 5.75339C34.4653 5.10059 34.4772 4.3825 34.3735 3.94731H29.7674L30.0833 2.40234H38.2548L37.9389 3.94731H35.9731C36.0412 4.55659 35.9893 5.18763 35.8291 5.97099C35.3487 8.3211 33.7609 9.58312 31.58 10.5406C32.3508 11.955 33.5441 13.5652 34.7685 15.0232Z" fill="#F1A62E"/>
<path d="M30.8401 3.95383L28.3835 15.9692H26.8752L28.2974 9.01296C27.5602 9.34005 26.7566 9.53634 25.6207 9.53634C24.5594 9.53634 23.5701 9.27465 22.7744 8.79491C20.982 9.8198 20.312 10.3649 20.0445 11.6734C19.7725 13.0036 20.4633 13.7232 21.8412 13.7232C22.102 13.7232 22.3112 13.7014 22.5108 13.636C22.4854 13.3961 22.5061 13.1126 22.564 12.8291C22.7334 12.0005 23.3157 11.5207 24.0233 11.5207C24.9915 11.5207 25.4091 12.393 25.2397 13.2216C25.1148 13.8322 24.6123 14.3773 23.9496 14.7045C24.1198 15.5113 24.3443 16.1437 24.6598 17.0596L23.1444 17.8228C22.9079 16.8851 22.7227 15.9692 22.6456 15.1624C22.3388 15.206 21.976 15.2497 21.6409 15.2497C19.5925 15.2497 18.0405 14.0066 18.5131 11.6952C18.843 10.0815 19.6775 9.1874 21.7245 8.00985C20.767 7.13759 20.3584 6.22172 20.6259 4.91332C20.9424 3.36506 22.1701 2.1875 24.0694 2.1875C25.7639 2.1875 26.7081 3.12518 26.3336 4.95694C26.075 6.22172 25.3425 7.07217 24.2412 7.81356C24.7314 7.96622 25.1836 8.03162 25.7794 8.03162C26.7663 8.03162 27.7695 7.77001 28.6675 7.20301L29.3318 3.95383H27.8048L28.1214 2.40557H33.0746L32.758 3.95383H30.8401ZM22.0374 5.02235C21.8412 5.98184 22.3361 6.65784 23.0626 7.20301C24.1363 6.5052 24.7259 5.80739 24.8909 5.00055C25.0558 4.19371 24.8038 3.60492 23.7424 3.60492C22.8858 3.60492 22.2202 4.12829 22.0374 5.02235Z" fill="#F1A62E"/>
<path d="M12.3998 2.32422H13.9109L12.1811 10.5549H13.0957L17.8674 6.46782H19.9749L14.3085 11.1765L18.0265 15.8851H15.8991L12.8372 11.7792H11.9226L11.0677 15.8851H9.55664L12.3998 2.32422Z" fill="#F1A62E"/>
<path d="M7.6767 15.8962L7.88013 14.2002C7.51023 14.7781 7.04172 15.2304 6.47458 15.557C5.90744 15.8711 5.2355 16.0281 4.45877 16.0281C3.79299 16.0281 3.24434 15.9214 2.81282 15.7078C2.3813 15.4942 2.07923 15.1927 1.90662 14.8032C1.73401 14.4012 1.70319 13.9301 1.81416 13.3898C1.9621 12.5983 2.37513 11.9513 3.05324 11.4488C3.74367 10.9337 4.6437 10.6196 5.75333 10.5065L8.67533 10.1862L8.82332 9.43235C8.92195 8.90472 8.81092 8.48387 8.49039 8.1698C8.16986 7.8431 7.68286 7.67979 7.0294 7.67979C6.38828 7.67979 5.82114 7.83054 5.32797 8.13206C4.84713 8.43357 4.47726 8.86706 4.21835 9.43235L3.05324 8.98012C3.44777 8.15089 4.02108 7.5039 4.77315 7.03906C5.52524 6.57422 6.38211 6.3418 7.34379 6.3418C8.42872 6.3418 9.21784 6.63075 9.711 7.20867C10.2165 7.77405 10.3768 8.54663 10.1918 9.52658L8.93427 15.8962H7.6767ZM8.43495 11.3923L5.49442 11.7315C4.86562 11.8068 4.36629 11.9827 3.99642 12.2591C3.62654 12.523 3.39845 12.8747 3.31215 13.3145C3.22584 13.7542 3.31215 14.106 3.57106 14.3698C3.82997 14.6336 4.25533 14.7655 4.84713 14.7655C5.52524 14.7655 6.1047 14.6273 6.58554 14.3509C7.07871 14.0745 7.47324 13.704 7.76918 13.2391C8.06507 12.7617 8.26849 12.2466 8.37944 11.6938L8.43495 11.3923Z" fill="#F1A62E"/>
<path d="M19.9422 2.32422L19.5558 3.87403H5.41748L5.80385 2.32422H19.9422Z" fill="#F1A62E"/>
<path d="M21.4628 17.2812L20.9693 18.8311H2.90771L3.4013 17.2812H21.4628Z" fill="#F1A62E"/>
<path d="M36.844 17.2812L36.5355 18.7923H25.2471L25.5556 17.2812H36.844Z" fill="#F1A62E"/>
</svg>
